<?xml version="1.0" encoding="UTF-8" standalone="no"?>
<!DOCTYPE svg PUBLIC "-//W3C//DTD SVG 1.1//EN" "http://www.w3.org/Graphics/SVG/1.1/DTD/svg11.dtd">
<svg width="100%" height="100%" viewBox="0 0 2048 1536" version="1.1" xmlns="http://www.w3.org/2000/svg" xmlns:xlink="http://www.w3.org/1999/xlink" xml:space="preserve" xmlns:serif="http://www.serif.com/" style="fill-rule:evenodd;clip-rule:evenodd;stroke-linejoin:round;stroke-miterlimit:2;">
    <g transform="matrix(1,0,0,1,-111.671,-6.45979)">
        <path d="M499.239,1088.66C499.213,1086.39 498.652,1082.71 498.642,1080.88L498.574,988.619C498.274,948.167 498.172,907.716 497.854,867.266C497.642,840.309 497.334,813.352 496.809,786.397C495.426,715.94 495.662,645.267 493.801,574.726C493.004,544.506 491.791,514.312 489.965,484.168C489.116,470.141 488.625,456.022 487.725,441.95C487.128,432.622 486.351,423.314 485.168,414.067C484.82,411.343 482.86,407.983 481.288,404.792C479.831,401.834 478.665,398.983 478.505,396.737C478.288,393.676 479.404,391.317 482.625,390.028C489.037,387.463 505.843,385.814 526.048,384.819C562.389,383.03 609.95,383.086 625.941,382.188C637.621,381.535 674.943,378.868 703.626,379.121C719.132,379.259 732.184,380.359 737.754,382.876C738.955,383.419 740.61,385.574 741.32,389.724C742.653,397.51 742.778,414.332 742.148,435.962C740.355,497.452 732.639,598.295 731.163,638.765C728.919,700.877 727.137,763.147 726.606,825.421C726.075,887.672 726.794,949.925 729.446,1012.02C730.366,1033.47 738.323,1085.83 739.724,1126.95C740.468,1148.79 739.248,1167.54 734.486,1177.29C734.057,1178.17 733.174,1179.12 731.62,1179.82C728.984,1181 723.104,1181.76 715.525,1182.06C693.357,1182.94 655.645,1180.63 648.384,1180.77C612.91,1181.41 580.374,1176.84 546.689,1176.65C532.674,1176.57 518.454,1177.22 503.724,1179.42C501.86,1179.69 498.316,1180.41 495.493,1180.17C493.491,1179.99 491.78,1179.35 490.643,1178.27C488.041,1175.79 486.989,1169.06 487.527,1160.81C488.39,1147.59 492.204,1130.14 492.634,1124.75C492.74,1123.29 494.015,1122.18 495.479,1122.29C496.943,1122.39 498.046,1123.67 497.94,1125.13C497.588,1130.52 494.018,1147.96 493.359,1161.14C493.162,1165.09 493.226,1168.63 493.777,1171.26C494.015,1172.39 494.262,1173.32 494.81,1173.83C495.412,1174.38 496.561,1174.1 497.683,1174.01C499.618,1173.86 501.584,1173.42 502.771,1173.23C517.826,1170.85 532.371,1170 546.714,1170.03C580.353,1170.09 612.841,1174.84 648.267,1174.22C654.672,1174.12 684.774,1175.94 706.992,1175.8C715.132,1175.75 722.184,1175.44 726.498,1174.64C727.43,1174.47 728.516,1174.11 728.973,1173.95C733.25,1164.66 734.053,1147.29 733.399,1127.16C732.064,1086.06 724.191,1033.71 723.306,1012.28C721.241,962.509 720.441,912.639 720.488,862.752C720.559,787.969 722.556,713.145 725.263,638.552C726.529,603.267 732.513,522.088 735.189,461.11C736.534,430.461 737.057,404.951 735.686,393.096C735.44,390.973 734.873,388.864 734.667,388.147C729.205,386.009 717.433,385.311 703.574,385.197C675.036,384.963 637.905,387.647 626.285,388.304C610.286,389.203 562.706,389.152 526.35,390.941C507.073,391.89 491.018,393.27 484.901,395.717C484.041,396.06 484.655,396.907 484.953,397.854C486.429,402.533 490.599,408.777 491.154,413.319C492.299,422.697 493.034,432.134 493.586,441.591C494.408,455.675 494.825,469.803 495.598,483.843C497.261,514.055 498.257,544.317 498.945,574.6C500.547,645.158 500.307,715.838 501.559,786.308C502.042,813.283 502.307,840.258 502.479,867.233C502.736,907.684 502.782,948.137 503.023,988.589C503.115,1003.98 503.164,1019.37 503.1,1034.76C503.036,1050.14 502.857,1065.53 502.648,1080.92C502.58,1083.7 503.219,1090.35 502.426,1091.56C501.668,1092.71 500.363,1093.57 498.617,1091.57C497.938,1090.81 498.001,1089.65 498.756,1088.97C498.904,1088.84 499.067,1088.73 499.239,1088.66Z"/>
    </g>
    <g transform="matrix(1,0,0,1,-111.671,-6.45979)">
        <path d="M853.747,1039.55C854.023,1038.68 854.789,1036.14 855.232,1033.59C857.513,1020.46 859.642,992.233 861.532,958.715C865.767,883.617 868.709,782.048 869.609,763.178C870.277,749.189 876.331,686.224 877.136,639.198C877.383,624.732 877.122,611.789 876.068,602.282C875.311,595.46 874.329,590.512 872.496,588.408C869.114,584.585 860.662,584.095 849.817,584.536C825.992,585.504 791.2,592.637 767.941,593.207C759.986,593.402 753.169,593.17 748.777,591.06C748.023,590.697 747.397,590.248 746.8,589.779C745.907,589.295 745.575,588.177 746.059,587.284C746.542,586.391 747.66,586.059 748.553,586.543C749.582,586.981 750.778,587.197 752.093,587.485C756.189,588.382 761.545,588.843 767.813,588.648C791.058,587.923 825.795,580.536 849.61,579.534C862.419,578.994 872.218,580.613 876.201,585.139C878.445,587.65 880.2,593.47 881.177,601.696C882.325,611.367 882.609,624.552 882.384,639.283C881.668,686.371 875.623,749.423 874.968,763.431C873.97,784.781 870.207,911.94 865.421,986.962C863.922,1010.45 862.331,1028.87 860.623,1037.44C859.725,1041.95 858.038,1044.28 857.085,1044.75C848.59,1048.84 837.731,1049.81 825.93,1049.1C807.638,1047.99 786.98,1043.06 769.938,1040.36C765.02,1039.58 760.425,1038.91 756.261,1038.71C754.816,1038.67 753.673,1037.47 753.709,1036.03C753.745,1034.58 754.947,1033.44 756.392,1033.47C760.76,1033.48 765.618,1033.83 770.79,1034.51C787.738,1036.76 808.165,1041.96 826.292,1043.02C836.632,1043.63 846.189,1042.97 853.747,1039.55Z"/>
    </g>
    <g transform="matrix(1,0,0,1,-111.671,-6.45979)">
        <path d="M894.077,740.575C898.404,740.791 902.754,740.712 907.105,740.572C911.57,740.429 916.035,740.218 920.465,740.01L980.605,737.72C1022.07,735.716 1064.9,738.943 1106.97,739.286C1125.09,739.434 1143.08,739.051 1160.75,737.454C1162.25,737.316 1163.36,737.591 1164.16,738.253C1164.73,738.729 1165.28,739.454 1165.5,740.744C1167.2,750.51 1167.58,761.036 1167.23,771.86C1166.45,795.885 1162.01,821.399 1160.55,843.163C1158.7,873.158 1152.49,888.285 1141.27,895.552C1125.76,905.592 1099.53,900.297 1058.02,897.604C1021.36,895.211 983.154,896.004 945.734,894.433C931.082,893.818 916.442,893.59 902.28,891.177C900.665,890.901 899.116,890.456 897.527,890.078C896.138,889.904 895.152,888.636 895.326,887.247C895.499,885.859 896.767,884.872 898.156,885.046C899.768,885.07 901.357,884.995 902.971,885.088C917.167,885.903 931.488,887.556 945.991,888.129C983.466,889.608 1021.72,888.849 1058.44,891.215C1098,893.779 1122.95,899.636 1137.8,890.162C1147.98,883.671 1152.85,869.813 1154.87,842.776C1156.38,821.071 1160.89,795.635 1161.74,771.673C1162.09,761.697 1161.81,751.981 1160.37,742.914C1142.8,744.483 1124.93,744.888 1106.92,744.747C1064.95,744.418 1022.23,741.145 980.865,743.129L920.669,744.853C915.306,745.052 909.893,745.336 904.489,745.312C900.843,745.295 897.206,745.124 893.591,744.799C893.214,744.726 892.535,744.195 892.003,743.874L892.026,743.863L891.982,743.86C891.663,743.668 891.401,743.556 891.297,743.673C891.514,743.782 891.747,743.844 891.982,743.86L892.003,743.874C891.353,744.15 890.834,744.267 891.287,743.68L891.297,743.673C891.161,743.607 891.031,743.522 890.912,743.419C889.154,742.64 890.5,740.946 890.571,740.768C890.654,740.56 891.417,739.897 892.933,740.253C893.13,740.299 894.003,741.042 894.108,740.625C894.115,740.597 894.102,740.581 894.077,740.575L893.884,740.567C893.926,740.567 894.026,740.553 894.077,740.575Z"/>
    </g>
    <g transform="matrix(1,0,0,1,-111.671,-6.45979)">
        <path d="M1172.19,798.213C1172.66,798.44 1173.05,798.687 1173.55,798.848C1175.33,799.431 1177.28,799.534 1179.23,799.757C1187.93,800.755 1197.59,800.445 1207.64,799.579C1235.07,797.215 1265.59,790.032 1288.43,788.669C1307.15,787.552 1325.88,786.623 1344.61,785.81C1419.6,782.557 1494.68,781.153 1569.64,776.888C1601.37,775.115 1634.28,769.979 1666.97,767.829C1686.51,766.543 1705.92,766.743 1725.03,768.545C1727.17,768.747 1729.31,768.886 1731.44,769.106C1732.84,769.305 1734.14,768.334 1734.34,766.937C1734.54,765.54 1733.56,764.245 1732.17,764.045C1730.55,763.727 1728.93,763.386 1727.3,763.149C1712.75,761.034 1697.88,761.133 1682.97,761.646C1644.97,762.953 1606.36,769.612 1569.35,771.757C1494.42,776.001 1419.35,777.387 1344.39,780.617C1325.62,781.426 1306.87,782.349 1288.12,783.462C1265.24,784.82 1234.65,791.839 1207.18,794.356C1197.46,795.247 1188.14,795.491 1179.7,794.85C1177.85,794.71 1176.05,794.356 1174.28,794.345C1173.78,794.342 1173.36,794.459 1172.87,794.506C1171.85,794.32 1170.87,795 1170.68,796.023C1170.49,797.045 1171.17,798.027 1172.19,798.213Z"/>
    </g>
    <g transform="matrix(1,0,0,1,-111.671,-6.45979)">
        <path d="M1180.83,841.241C1180.66,841.43 1180.45,841.586 1180.21,841.696C1179.29,842.117 1178.19,841.707 1177.77,840.783C1177.44,840.212 1177.92,838.072 1180.94,837.071C1182.89,836.422 1186.17,835.68 1190.21,834.987C1206.09,832.262 1233.77,829.807 1236.48,829.641C1258.8,828.361 1281.16,827.137 1303.53,826.295C1318.46,825.733 1333.4,825.346 1348.32,825.201C1383.5,824.864 1523.76,825.337 1628.7,819.323C1667.82,817.081 1701.98,813.794 1723.94,809.51C1734.32,807.487 1741.91,805.368 1745.78,802.683C1746.86,801.915 1748.36,802.165 1749.12,803.24C1749.89,804.316 1749.64,805.813 1748.57,806.582C1744.43,809.63 1736.31,812.508 1725.03,814.879C1702.95,819.521 1668.45,822.572 1629.02,824.847C1523.98,830.908 1383.59,830.446 1348.37,830.791C1333.5,830.934 1318.62,831.331 1303.74,831.875C1281.4,832.691 1259.07,833.848 1236.79,835.081C1233.74,835.224 1198.91,838.538 1185.25,840.585C1183.59,840.834 1182.28,841.137 1181.35,841.218C1181.16,841.234 1180.97,841.254 1180.83,841.241ZM1181.18,839.39C1181.18,839.346 1181.16,839.303 1181.12,839.26L1181.18,839.39Z"/>
    </g>
    <g transform="matrix(1,0,0,1,-111.671,-6.45979)">
        <path d="M1744.85,947.364C1744.81,945.241 1744.05,941.309 1744.1,939.405L1745.24,911.15C1745.59,897.508 1745.72,883.856 1745.78,870.202C1745.87,849.695 1745.76,829.182 1745.77,808.69C1745.78,791.617 1745.48,774.557 1745.03,757.503C1744.34,731.883 1743.31,706.275 1742.52,680.649C1741.74,659 1744.01,647.31 1751.36,640.991C1758.47,634.871 1770.83,633.578 1791.44,633.828C1802.72,634.014 1822.38,631.348 1838.73,631.844C1847.03,632.096 1854.51,633.195 1859.86,635.662C1863.14,637.178 1865.37,642.092 1865.96,648.595C1866.85,658.374 1865.03,671.872 1864.92,675.674C1864.09,705.316 1866.24,819.293 1864.5,904.832C1863.5,954.126 1861.01,994.107 1855.87,1003.92C1854.72,1006.12 1853.15,1007.23 1851.41,1007.79C1849.43,1008.44 1847.05,1008.16 1844.68,1007.71C1834.09,1005.62 1788.49,997.977 1761.52,992.177C1754.32,990.63 1748.4,989.312 1744.84,988.063C1742.6,987.276 1741.15,986.488 1740.53,985.962C1739.69,985.243 1739.25,984.587 1739.15,984.037C1738.71,982.491 1739.61,980.879 1741.15,980.437C1742.22,980.132 1743.32,980.466 1744.04,981.211C1743.98,981.491 1744.15,981.701 1744.52,981.865L1744.53,981.889L1744.64,982.13L1744.61,982.043L1744.53,981.873L1744.52,981.865L1744.4,981.67L1744.38,981.647L1744.37,981.62L1744.22,981.41L1744.04,981.211L1744.07,981.121C1744.16,980.861 1744.29,981.466 1744.37,981.62L1744.39,981.641L1744.4,981.67L1744.46,981.742C1744.48,981.775 1744.5,981.808 1744.52,981.84L1744.53,981.873C1745.85,982.464 1749.51,982.493 1752.7,983.181C1776.29,988.26 1833.95,998.45 1846.04,1000.82C1846.94,1001 1847.85,1001.21 1848.69,1001.21C1849.1,1001.21 1849.49,1001.13 1849.73,1000.68C1854.77,991.203 1857.06,952.445 1858.14,904.696C1860.07,819.144 1857.48,705.141 1858.27,675.492C1858.35,672.246 1859.74,661.768 1859.51,652.796C1859.43,649.707 1859.16,646.81 1858.52,644.534C1858.16,643.234 1857.89,642.109 1857.06,641.726C1852.38,639.564 1845.79,638.752 1838.52,638.52C1822.2,638 1802.58,640.583 1791.32,640.363C1772.9,639.922 1761.72,640.217 1755.29,645.616C1748.8,651.076 1747.67,661.51 1748.15,680.477C1748.92,706.111 1749.92,731.726 1750.61,757.353C1751.07,774.457 1751.4,791.567 1751.41,808.69C1751.42,829.191 1751.58,849.713 1751.48,870.229C1751.41,883.926 1751.2,897.62 1750.81,911.303L1749.43,939.68C1749.3,941.35 1749.84,944.679 1749.81,946.796C1749.79,948.296 1749.55,949.464 1749.14,949.923C1748.25,950.927 1747.31,951.816 1746.3,951.049C1745.91,950.754 1745.19,950.806 1744.98,949.828C1744.31,949.154 1744.26,948.087 1744.85,947.364ZM1744.86,947.534C1744.64,947.702 1744.57,947.835 1744.86,947.852C1744.93,947.856 1744.86,947.702 1744.86,947.61L1744.86,947.534ZM1747.55,947.199C1747.59,947.135 1747.87,946.988 1747.77,946.979C1747.6,946.963 1747.55,946.741 1747.42,946.738C1746.89,946.725 1746.45,946.545 1746.11,946.695C1746.62,946.647 1747.15,946.815 1747.55,947.199Z"/>
    </g>
    <g transform="matrix(1,0,0,1,-111.671,-6.45979)">
        <path d="M1786.23,619.279C1786.21,617.284 1785.29,613.463 1785.28,611.936L1785.13,588.279C1784.97,576.056 1784.8,563.838 1784.52,551.621C1784.33,543.487 1784.09,535.354 1783.77,527.221C1782.85,503.947 1777.11,445.047 1776.84,398.213C1776.73,377.976 1777.55,359.943 1780.36,347.922C1780.78,346.099 1780.79,344.16 1781.79,342.875C1781.99,342.619 1782.14,342.624 1782.4,342.454C1782.86,341.096 1784.33,340.361 1785.68,340.814C1787.04,341.267 1787.78,342.737 1787.33,344.095C1787.43,344.369 1787.58,344.428 1787.6,344.727C1787.65,346.186 1786.81,347.655 1786.45,349.297C1783.9,361.021 1782.95,378.511 1783.03,398.181C1783.24,444.94 1788.89,503.752 1789.77,526.989C1790.08,535.155 1790.31,543.321 1790.48,551.488C1790.74,563.725 1790.89,575.962 1791.04,588.205L1790.78,612.105C1790.63,614.387 1791.04,620.065 1790.58,621.396C1789.61,624.193 1787.64,624.261 1786.82,623.281C1786.6,623.021 1785.69,622.762 1785.76,621.491C1785.63,621.167 1785.6,620.829 1785.63,620.505C1785.55,620.464 1785.59,620.372 1785.68,620.262C1785.77,619.892 1785.96,619.549 1786.23,619.279ZM1786.22,619.74C1786.05,619.897 1785.81,620.1 1785.68,620.262C1785.66,620.342 1785.64,620.423 1785.63,620.505C1785.66,620.523 1785.7,620.531 1785.76,620.534C1786.04,620.546 1786.18,620.243 1786.22,619.74ZM1789.3,619.45C1789.38,619.558 1789.46,619.676 1789.52,619.803C1789.51,619.672 1789.58,619.554 1789.52,619.535L1789.3,619.45Z"/>
    </g>
    <g transform="matrix(1,0,0,1,-111.671,-6.45979)">
        <path d="M1821.87,608.174C1821.87,608.423 1821.78,608.663 1821.83,608.833C1821.92,609.138 1821.6,609.304 1821.56,609.571C1821.46,610.32 1820.62,610.211 1819.51,610.473C1818.91,610.615 1818.22,609.784 1817.56,608.123C1817.42,607.095 1817.2,606.124 1817.15,605.088C1816.69,596.086 1817.64,587.089 1817.51,578.063L1817.14,522.308C1817.01,499.979 1816.7,477.676 1816.28,455.38C1815.71,425.263 1814.5,395.168 1814.05,365.024C1814,361.674 1814.05,358.327 1814.04,354.976C1814,353.501 1815.16,352.268 1816.63,352.224C1818.11,352.179 1819.34,353.34 1819.38,354.814C1819.56,357.603 1819.79,360.384 1819.92,363.175C1821.11,388.286 1821.39,413.407 1821.94,438.517C1822.56,466.419 1822.99,494.327 1823.15,522.274L1823.51,578.044C1823.44,586.151 1823.13,594.224 1822.69,602.305C1822.62,603.513 1822.67,604.734 1822.48,605.929C1822.35,606.714 1822.09,607.414 1821.87,608.174ZM1821.86,608.221L1821.83,608.321C1821.85,608.286 1821.86,608.253 1821.86,608.221ZM1820.83,606.831C1821.14,607 1821.41,607.257 1821.59,607.589L1821.64,607.639C1821.67,607.096 1821.24,606.933 1820.83,606.831ZM1818.87,606.905C1818.54,606.958 1818.36,607.155 1818.27,607.548C1818.41,607.294 1818.62,607.072 1818.87,606.905ZM1820.21,606.617C1819.97,606.475 1819.76,606.53 1819.55,606.627C1819.77,606.584 1819.99,606.581 1820.21,606.617Z"/>
    </g>
    <g transform="matrix(1,0,0,1,-111.671,-6.45979)">
        <path d="M1789.76,1001.25L1789.77,1001.25C1789.96,1001.25 1790.01,1001.62 1790.04,1001.99C1790.06,1002.3 1789.96,1002.67 1789.92,1003.09C1789.62,1006.64 1789.38,1014.01 1789.08,1024.19C1788.44,1046.12 1787.64,1080.96 1787.04,1118.6C1786.23,1168.94 1785.89,1224.26 1785.53,1260.27C1785.36,1277.12 1785.1,1289.72 1785.23,1295.6C1785.28,1296.89 1784.27,1297.98 1782.98,1298.02C1781.69,1298.07 1780.61,1297.06 1780.56,1295.77C1780.26,1289.87 1779.89,1277.19 1779.83,1260.25C1779.72,1224.22 1780.72,1168.87 1781.69,1118.5C1782.42,1080.84 1783.21,1045.95 1784.14,1024.01C1784.57,1013.7 1784.78,1006.2 1785.45,1002.65C1785.8,1000.87 1786.26,999.9 1786.48,999.636C1786.98,998.758 1788.1,998.452 1788.98,998.954C1789.79,999.418 1790.11,1000.41 1789.76,1001.25Z"/>
    </g>
    <g transform="matrix(1,0,0,1,-111.671,-6.45979)">
        <path d="M1820.19,1006.65C1819.42,1006.02 1819.29,1004.88 1819.91,1004.09C1820.54,1003.29 1821.69,1003.15 1822.49,1003.78C1822.93,1003.81 1823.1,1004.05 1823.57,1004.38C1823.97,1004.68 1824.19,1005.3 1824.49,1005.98C1825.18,1007.57 1825.72,1010.21 1826.22,1013.73C1828.28,1028.48 1828.92,1059.92 1828.86,1097.28C1828.72,1177.74 1825.01,1285.76 1823.5,1313.3C1823.41,1314.84 1822.09,1316.02 1820.55,1315.94C1819.01,1315.85 1817.83,1314.53 1817.92,1312.99C1819.46,1285.49 1823.17,1177.61 1823.54,1097.26C1823.72,1060.2 1823.12,1029.03 1821.33,1014.36C1820.96,1011.32 1820.54,1009.05 1820.09,1007.62C1820,1007.33 1820.08,1006.85 1819.88,1006.9C1819.72,1006.94 1820.08,1006.63 1820.19,1006.65Z"/>
    </g>
    <g transform="matrix(1,0,0,1,-111.671,-6.45979)">
        <path d="M1920.35,1370.13C1920.64,1369.28 1921.1,1367.82 1921.66,1365.87C1924.5,1356.13 1929.8,1334.56 1928.8,1317.59C1928.06,1305.16 1923.95,1295.1 1910.73,1296.4L1804.89,1307.13C1787.82,1308.93 1765.17,1310.62 1744.62,1312.78C1732.84,1314.02 1721.79,1315.56 1712.84,1317.06C1711.2,1317.34 1709.64,1317.72 1708.13,1317.83C1706.97,1317.92 1705.94,1317.76 1704.86,1317.75C1703.94,1317.98 1703.01,1317.42 1702.78,1316.5C1702.54,1315.58 1703.11,1314.64 1704.03,1314.41C1704.95,1313.91 1705.79,1313.35 1706.85,1312.94C1707.78,1312.58 1708.8,1312.4 1709.84,1312.17C1716.66,1310.63 1724.98,1309.53 1733.97,1308.44C1756.88,1305.64 1784.39,1303.69 1804.31,1301.58L1910.09,1290.67C1923.81,1288.93 1930.91,1296.22 1933.94,1307.36C1938.79,1325.23 1931.96,1354.11 1928.3,1366.83C1926.9,1371.67 1925.46,1374.47 1925.35,1374.57C1920.57,1378.85 1911.85,1381.03 1901.6,1381.7C1882.65,1382.95 1858.29,1379.55 1847.75,1379.71C1824.71,1380.08 1801.64,1380.75 1778.59,1381.92C1755.55,1383.08 1732.54,1384.73 1709.59,1386.82C1708.21,1386.95 1697.23,1388.69 1692.98,1388.1C1690.49,1387.76 1689.22,1386.38 1688.79,1385.34C1687.17,1381.38 1686.51,1376.37 1686.42,1370.95C1686.3,1363.74 1687.06,1355.74 1687.75,1348.75C1688.08,1345.43 1688.44,1342.36 1688.51,1339.71C1688.51,1337.83 1690.03,1336.31 1691.9,1336.31C1693.78,1336.31 1695.3,1337.83 1695.3,1339.71C1695.37,1342.54 1695.26,1345.85 1694.97,1349.4C1694.41,1356.19 1693.32,1363.9 1693.33,1370.88C1693.33,1374.81 1693.63,1378.5 1694.57,1381.57C1698.78,1381.93 1707.83,1380.49 1709.02,1380.39C1732.06,1378.39 1755.16,1376.9 1778.28,1375.75C1801.4,1374.6 1824.53,1373.79 1847.64,1373.36C1858.11,1373.16 1882.34,1376.49 1901.15,1375.18C1909.24,1374.62 1916.29,1373.34 1920.35,1370.13Z"/>
    </g>
    <g transform="matrix(1,0,0,1,-111.671,-6.45979)">
        <path d="M1693.98,288.73C1694.72,289.39 1696.5,290.089 1699.29,290.426C1706.49,291.299 1721.44,290.283 1740.34,288.575C1799.85,283.195 1899.11,268.947 1920.07,266.803C1923.54,266.461 1929.76,264.836 1934.59,265.171C1936.96,265.335 1939.03,265.929 1939.15,268.418C1941.68,312.951 1934.62,332.987 1917.59,341.353C1893.58,353.155 1851.58,342.511 1794.14,345.033C1755.17,346.738 1725.8,355.797 1707.88,352.777C1693.33,350.327 1687.8,339.004 1690.4,307.608C1690.53,306.096 1689.41,304.761 1687.9,304.63C1686.39,304.498 1685.05,305.619 1684.92,307.131C1681.62,343.419 1690.06,355.791 1706.88,358.668C1725.06,361.778 1754.87,352.588 1794.4,350.739C1852.83,348.014 1895.56,358.23 1919.97,346.171C1938.25,337.136 1947.18,316 1944.38,268.116C1944.09,263.687 1941.55,261.442 1937.86,260.525C1932.49,259.19 1923.97,261.392 1919.56,261.862C1901.07,263.753 1821.64,274.789 1762.35,281.332C1735.44,284.302 1712.72,286.262 1701.79,286.084C1699.95,286.054 1698.48,285.94 1697.38,285.83C1696.83,285.775 1696.42,285.927 1696.18,285.796C1695.37,285.189 1694.22,285.353 1693.61,286.163C1693,286.972 1693.17,288.123 1693.98,288.73Z"/>
    </g>
    <g transform="matrix(1,0,0,1,-111.671,-6.45979)">
        <path d="M611.162,749.263C605.128,754.656 599.186,760.574 592.887,765.829C590.313,767.977 587.744,770.111 584.962,771.864C584.462,772.179 584.006,772.616 583.43,772.732C583.018,772.815 582.884,772.688 582.468,772.641C581.62,773.2 580.478,772.965 579.919,772.117C579.36,771.269 579.594,770.127 580.442,769.568C580.581,769.173 580.513,768.96 580.756,768.618C581.363,767.763 582.365,767.279 583.193,766.623C592.537,759.226 601.337,750.265 610.23,742.504C610.404,742.353 611.761,740.91 612.408,740.476C613.652,739.641 614.786,739.892 615.319,740.103C616.006,740.374 617.502,741.824 617.427,744.662C617.307,749.226 615.057,760.699 614.908,761.832C612.688,778.543 611.074,795.337 608.837,812.042C608.662,813.347 608.609,814.677 608.292,815.955C608.15,816.527 607.907,817.029 607.707,817.583C607.491,819.092 606.09,820.142 604.581,819.927C603.072,819.711 602.021,818.311 602.237,816.801C602.2,816.218 602.103,815.674 602.124,815.09C602.17,813.785 602.475,812.502 602.65,811.208C604.915,794.505 606.732,777.733 609.067,761.035C609.179,760.242 610.428,754.201 611.162,749.263Z"/>
    </g>
    <g transform="matrix(1,0,0,1,-111.671,-6.45979)">
        <path d="M784.351,772.866C784.74,773.364 784.86,774.05 784.609,774.678C784.706,775.087 784.465,775.189 784.468,775.296C784.49,776.148 783.587,775.882 783.419,776.107C783.261,776.318 783.017,776.073 782.836,776.206C782.235,776.647 782.053,775.698 781.257,775.486C780.974,775.411 781.197,774.984 780.846,774.681C780.741,774.59 780.919,774.304 780.764,773.532C780.699,773.207 780.758,772.554 780.917,771.804C781.154,770.69 781.852,769.593 782.299,769.057C783.55,767.569 785.199,766.287 786.992,765.241C788.741,764.22 790.645,763.467 792.455,762.988C797.364,761.73 801.897,762.916 805.561,765.546C809.007,768.021 811.622,771.865 813.043,776.092C815.134,782.384 814.977,788.815 813.327,794.976C810.961,803.814 805.478,812.087 799.414,818.438C798.488,819.42 792.733,823.646 789.077,827.222C795.012,827.388 804.376,827.199 810.683,827.288C812.074,827.308 813.329,827.261 814.35,827.416C815.523,827.593 816.336,827.914 816.909,828.095C818.738,828.23 820.112,829.825 819.977,831.654C819.841,833.483 818.247,834.857 816.418,834.722C815.898,834.805 815.182,835.101 814.146,835.203C813.142,835.302 811.921,835.213 810.562,835.191C803.207,835.07 791.772,834.671 786.187,834.135C784.298,833.954 782.937,833.704 782.319,833.472C780.881,832.933 780.284,832.02 780.039,831.438C779.441,830.042 779.851,827.158 782.461,824.344C786.054,820.47 793.558,815.029 794.665,813.889C799.153,809.219 803.324,803.389 805.811,797.049C808.185,790.997 809.028,784.472 806.938,778.109C805.971,775.132 804.174,772.428 801.805,770.623C799.58,768.928 796.842,767.998 793.764,768.636C792.399,768.908 790.952,769.377 789.607,770.055C788.31,770.709 787.086,771.511 786.149,772.498C785.962,772.693 785.829,773.178 785.614,773.565C785.398,773.952 784.926,774.265 784.858,774.448C784.901,774.529 784.948,774.605 784.881,774.551C784.848,774.524 784.842,774.489 784.858,774.448C784.826,774.391 784.796,774.33 784.811,774.313C785.021,774.053 784.686,773.864 784.745,773.714C784.935,773.227 784.664,773.027 784.351,772.866ZM781.402,772.928C781.342,772.988 781.262,773.042 781.155,773.083C781.13,773.093 781.218,773.158 781.231,773.225C781.279,773.119 781.337,773.02 781.402,772.928ZM781.851,772.483L781.776,772.481C781.656,772.472 781.628,772.611 781.532,772.766L781.592,772.7C781.635,772.66 781.679,772.62 781.723,772.579L781.851,772.483ZM783.689,772.334C783.573,772.173 783.433,772.151 783.255,772.19C783.365,772.21 783.475,772.243 783.583,772.286L783.689,772.334Z"/>
    </g>
    <g transform="matrix(1,0,0,1,-111.671,-6.45979)">
        <path d="M1006.02,815.101C1006.9,814.532 1007.75,813.91 1008.09,813.693C1015.17,808.826 1017.04,802.895 1016.12,797.693C1015.25,792.787 1012.11,788.671 1009.07,786.797C1007.91,786.083 1007.01,785.609 1006,785.87C1005.76,785.933 1005.68,785.646 1005.42,785.683C1004.71,786.409 1003.54,786.421 1002.82,785.71C1002.09,784.999 1002.08,783.833 1002.79,783.108C1002.77,782.68 1002.8,782.651 1002.97,782.273C1003.85,780.289 1006.64,780.25 1009.02,780.67C1014.17,781.573 1020.55,788.273 1022.32,796.48C1023.79,803.316 1022.15,811.336 1013.87,818.268L1014.04,818.391C1017.87,821.203 1020.97,825.493 1022.3,829.177C1024.22,834.53 1023.57,839.154 1021.45,843.048C1019.36,846.891 1015.79,850.17 1011.52,852.312C1010.54,852.806 1009.55,853.3 1008.48,853.576C1007.74,853.768 1007.05,853.842 1006.3,853.926C1004.58,854.58 1002.64,853.708 1001.99,851.979C1001.33,850.251 1002.21,848.317 1003.93,847.663C1004.5,847.265 1004.94,846.788 1005.54,846.405C1006.34,845.884 1007.19,845.439 1008.01,844.938C1009.96,843.746 1011.8,842.426 1013.15,840.767C1015.04,838.439 1015.85,835.498 1014.57,831.952C1013.85,829.937 1012.27,827.68 1010.33,825.908C1009.03,824.72 1007.57,823.686 1006.05,823.302C1004.15,823.992 1002.36,823.899 1001.09,823.443C999.165,822.687 998.702,821.263 998.564,820.159C998.492,819.581 998.473,816.933 1001.27,815.825C1002.07,815.513 1004.27,815.052 1004.56,815.045C1005.05,815.032 1005.53,815.05 1006.02,815.101ZM1004.26,816.059C1004.22,816.017 1004.16,815.982 1004.08,815.952C1003.85,815.857 1003.29,815.494 1003.29,815.794C1003.29,816.269 1003.69,816.282 1004.26,816.059Z"/>
    </g>
    <g transform="matrix(1,0,0,1,-111.671,-6.45979)">
        <path d="M1419.47,850.886C1419.62,850.483 1419.91,850.131 1420.31,849.909C1421.09,849.499 1421.66,849.751 1422,849.842C1422.48,849.972 1422.38,850.643 1422.95,852.332C1423.07,852.673 1423.05,852.35 1423.14,853.028C1423.19,853.313 1422.96,853.683 1422.72,854.163C1421.4,856.888 1416.98,862.67 1415.6,864.77C1413.64,867.593 1408.21,873.539 1404.07,879.314C1402.71,881.222 1401.42,883.058 1400.58,884.695C1403.9,884.271 1409.71,885.732 1410.43,885.689C1415.99,885.353 1421.57,885.125 1427.14,885.223C1429.72,885.267 1432.29,885.301 1434.85,885.56C1435.97,885.673 1437.03,885.91 1438.14,886.083C1439.83,886.083 1441.2,887.455 1441.2,889.145C1441.2,890.835 1439.83,892.207 1438.14,892.207C1437.3,892.365 1436.5,892.57 1435.65,892.664C1433.73,892.877 1431.79,892.86 1429.86,892.885C1423.5,892.966 1417.13,892.751 1410.78,893.023C1409.6,893.067 1399.46,893.828 1396.01,892.567C1393.64,891.704 1392.71,890.063 1392.63,888.506C1392.51,885.801 1394.1,881.968 1396.81,878.001C1401.19,871.601 1408.23,864.385 1410.57,861.19C1412.09,859.212 1416.35,853.43 1418.38,851.209C1418.63,850.928 1418.85,850.739 1419.04,850.645C1419.19,850.569 1419.31,850.835 1419.3,850.719C1419.27,850.394 1419.42,850.646 1419.47,850.886ZM1421.89,853.226C1421.61,853.343 1421.31,853.384 1421.02,853.357C1421.27,853.395 1421.56,853.378 1421.89,853.226ZM1419.38,851.225C1418.8,851.904 1419.44,852.559 1420.01,852.93C1419.84,852.788 1419.69,852.612 1419.58,852.406C1419.37,852.031 1419.31,851.616 1419.38,851.225Z"/>
    </g>
    <g transform="matrix(1,0,0,1,-111.671,-6.45979)">
        <path d="M1424.06,880.287L1424.02,880.108C1423.84,879.108 1424.51,878.154 1425.51,877.978C1425.67,877.783 1425.86,878.032 1426.01,877.918C1426.76,877.37 1426.81,878.503 1427.5,878.701C1428.02,878.851 1426.86,881.487 1428.09,881.277C1428.18,881.263 1428.21,881.187 1428.22,881.104L1428.22,880.933C1428.23,880.978 1428.24,881.043 1428.22,881.104C1428.25,882.509 1428.3,883.899 1428.21,885.308C1428.02,888.633 1427.43,891.93 1427.07,895.23L1423.21,926.219C1423.06,927.921 1421.55,929.177 1419.85,929.023C1418.14,928.868 1416.89,927.361 1417.04,925.659C1417.16,923.549 1417.27,921.44 1417.48,919.334C1418.3,911.011 1419.77,902.741 1420.86,894.46C1421.31,891.178 1421.67,887.864 1422.26,884.596C1422.51,883.2 1422.88,881.855 1423.16,880.469C1423.34,880.214 1423.91,879.884 1423.88,879.545C1423.8,879.381 1423.72,879.258 1423.81,879.389C1423.85,879.441 1423.87,879.493 1423.88,879.545C1423.94,879.688 1424.01,879.864 1423.96,879.928C1423.84,880.069 1423.99,880.17 1424.06,880.287ZM1425.21,881.521L1425.24,881.575C1425.32,881.704 1425.42,881.664 1425.56,881.61L1425.42,881.585C1425.36,881.569 1425.3,881.552 1425.24,881.536L1425.21,881.521ZM1424.09,880.396L1424.09,880.449C1423.92,880.857 1424.18,880.949 1424.5,881.067C1424.32,880.88 1424.18,880.653 1424.09,880.396Z"/>
    </g>
    <g transform="matrix(1,0,0,1,-111.671,-6.45979)">
        <path d="M1784.73,767.231C1784.96,767.684 1785.02,767.93 1785.39,768.278C1787.52,770.297 1791.03,770.275 1794.32,770.426C1801.07,770.734 1808.95,768.839 1816.28,768.236C1820.47,767.891 1824.36,768.195 1827.84,769.235C1828.23,769.352 1828.63,769.376 1829.02,769.497C1830.38,770.179 1832.05,769.625 1832.73,768.261C1833.41,766.897 1832.86,765.236 1831.49,764.554C1831.21,764.305 1830.94,764.081 1830.61,763.889C1828.04,762.381 1824.81,762.177 1821.55,762.089C1812.37,761.841 1801.48,765.149 1792.8,764.691C1790.84,764.588 1789.12,763.81 1787.32,763.707C1786.93,763.684 1786.87,763.91 1786.49,763.995C1785.59,763.511 1784.48,763.843 1783.99,764.737C1783.51,765.63 1783.84,766.747 1784.73,767.231Z"/>
    </g>
    <g transform="matrix(1,0,0,1,-111.671,-6.45979)">
        <path d="M1788.87,807.829L1788.91,807.827C1796.68,806.343 1803.7,807.124 1809.47,810.107C1815.34,813.138 1819.96,818.468 1822.75,826.289C1825.77,834.753 1823.72,840.911 1819.39,845.312C1815.73,849.028 1810.18,851.528 1804.24,852.707C1802.12,853.129 1799.95,853.475 1797.83,853.469C1796.35,853.464 1794.94,853.267 1793.54,853.071C1791.99,853.071 1790.74,851.814 1790.74,850.267C1790.74,848.72 1791.99,847.464 1793.54,847.464C1794.78,847.289 1796,846.958 1797.3,846.749C1799.12,846.456 1801,846.231 1802.83,845.84C1807.38,844.874 1811.77,843.342 1814.63,840.541C1817.44,837.787 1818.49,833.828 1816.66,828.404C1814.59,822.266 1811.15,817.97 1806.61,815.527C1801.97,813.027 1796.27,812.434 1789.94,813.527C1789.19,813.658 1787.28,814.019 1786.2,813.637C1785.23,813.293 1784.49,812.661 1784.08,811.696C1783.12,809.458 1782.85,806.169 1783.07,802.487C1783.46,795.98 1785.26,788.092 1785.54,783.908C1785.54,783.908 1786.25,773.681 1786.25,773.681C1786.3,773.205 1786.42,770.367 1786.89,769.319C1788.05,766.727 1790.27,767.583 1790.27,767.611C1790.73,767.987 1790.95,768.533 1790.93,769.077C1791.05,769.22 1791.14,769.419 1791.21,769.684C1791.48,770.733 1791.19,773.394 1791.21,773.846L1790.84,784.22C1790.62,788.394 1788.95,796.285 1788.66,802.776C1788.58,804.658 1788.6,806.404 1788.87,807.829Z"/>
    </g>
    <g transform="matrix(1,0,0,1,-111.671,-6.45979)">
        <path d="M1864.68,1105.24C1864.26,1105.15 1864.28,1104.96 1863.85,1105.02C1863.1,1105.13 1862.53,1105.69 1861.88,1106.04C1859.77,1107.19 1857.75,1108.36 1855.8,1109.75C1853.87,1111.13 1852.07,1112.81 1850.48,1115.13C1846.52,1120.93 1841.26,1137.41 1842.31,1149.79C1843.21,1160.35 1848.36,1167.98 1860.32,1166.8C1869.91,1165.76 1875.2,1157.31 1875.26,1149.14C1875.32,1141.95 1871.47,1134.9 1863.62,1133.77C1862.81,1133.65 1861.95,1133.5 1861.07,1133.66C1860.24,1133.82 1859.55,1134.07 1858.71,1134.47C1857.28,1134.61 1856.23,1135.88 1856.36,1137.31C1856.5,1138.74 1857.77,1139.79 1859.2,1139.65C1859.72,1139.81 1860.05,1140.11 1860.54,1140.23C1861.16,1140.39 1861.74,1140.53 1862.3,1140.67C1866.36,1141.69 1868.12,1145.26 1868.07,1149.06C1868,1153.85 1865.16,1159 1859.54,1159.6C1852.42,1160.43 1849.79,1155.42 1849.11,1149.13C1847.93,1138.25 1852.05,1123.6 1855.4,1118.38C1858.21,1113.93 1862.34,1112.62 1865.9,1109.84C1866.23,1109.59 1866.66,1109.4 1866.84,1109.01C1867.02,1108.61 1866.88,1108.64 1866.89,1108.19C1867.71,1107.58 1867.87,1106.42 1867.26,1105.61C1866.65,1104.8 1865.5,1104.63 1864.68,1105.24Z"/>
    </g>
    <g transform="matrix(1,0,0,1,-111.671,-6.45979)">
        <path d="M1887.43,1320.66C1887.05,1320.53 1886.54,1320 1885.93,1319.86C1885.44,1319.74 1884.9,1319.64 1884.34,1319.56C1878.17,1318.69 1868.44,1319.71 1862.65,1318.98C1861.43,1318.83 1860.24,1318.84 1859.52,1318.28C1859.1,1317.95 1859.07,1317.82 1858.85,1317.4C1857.89,1317.06 1857.39,1316.01 1857.74,1315.05C1858.08,1314.09 1859.13,1313.59 1860.09,1313.93C1860.39,1313.78 1860.27,1313.54 1860.63,1313.46C1861.75,1313.25 1863.27,1313.61 1865.06,1313.62C1872.08,1313.64 1882.45,1313.18 1887.82,1314.6C1890.73,1315.37 1892.48,1316.9 1893.07,1318.7C1893.51,1320.01 1893.43,1321.64 1892.35,1323.61L1882.06,1341.85C1879.75,1345.96 1877.65,1350.22 1874.93,1354.08C1874.24,1355.06 1873.42,1355.88 1872.66,1356.8C1871.91,1358.08 1870.26,1358.51 1868.99,1357.76C1867.71,1357.01 1867.28,1355.36 1868.03,1354.08C1868.48,1352.95 1868.82,1351.83 1869.37,1350.75C1871.48,1346.57 1874.31,1342.79 1876.68,1338.76L1887.38,1320.81C1887.4,1320.76 1887.42,1320.71 1887.43,1320.66Z"/>
    </g>
    <g transform="matrix(1,0,0,1,-111.671,-6.45979)">
        <path d="M1870.08,1337.97C1871.68,1338.02 1875.16,1336.35 1876.54,1336.3C1879.47,1336.25 1882.4,1336.12 1885.31,1336.34C1887.25,1336.49 1889.14,1336.87 1891.07,1337.14C1892.61,1337.21 1893.8,1338.52 1893.73,1340.06C1893.66,1341.6 1892.36,1342.79 1890.82,1342.72C1888.88,1342.82 1886.98,1343.02 1885.04,1343.01C1882.2,1343 1879.36,1342.69 1876.5,1342.62C1874.97,1342.56 1871.97,1343.19 1870.07,1343.12C1868.41,1343.06 1867.2,1342.68 1866.71,1342.19C1866.3,1341.77 1865.86,1341.46 1865.74,1340.96C1865.68,1340.72 1865.54,1340.51 1865.54,1340.25C1865.54,1340.06 1865.46,1339.86 1865.51,1339.66C1865.54,1339.52 1865.46,1339.34 1865.56,1339.22C1866.09,1338.65 1865.53,1337.94 1866.97,1338.04C1867.55,1337.32 1868.57,1337.16 1869.34,1337.63C1869.41,1337.76 1869.53,1337.85 1869.69,1337.91C1870.34,1338.55 1870.41,1339.57 1869.86,1340.31C1870.05,1340.48 1870.43,1340.94 1870.35,1340.66C1870.24,1340.34 1870.77,1340.28 1870.72,1340.05C1870.53,1339.22 1870.64,1338.42 1870.08,1337.97L1870.01,1337.96C1869.95,1337.96 1869.89,1337.95 1869.83,1337.94L1869.69,1337.91C1869.65,1337.86 1869.6,1337.82 1869.56,1337.78C1869.49,1337.72 1869.41,1337.67 1869.34,1337.63C1869.29,1337.56 1869.27,1337.47 1869.26,1337.36C1869.24,1337.07 1869.63,1337.72 1869.77,1337.78C1869.89,1337.83 1870,1337.89 1870.08,1337.97Z"/>
    </g>
</svg>
